<svg width="125" height="45" viewBox="0 0 125 45" fill="none" xmlns="http://www.w3.org/2000/svg">
<path d="M13.0208 1.5625C11.1771 1.5625 9.55208 2.78125 9.03125 4.55208C8.47917 4.30208 7.89583 4.16667 7.29167 4.16667C6.1866 4.16667 5.12679 4.60565 4.34539 5.38705C3.56399 6.16846 3.125 7.22826 3.125 8.33333C3.12747 9.25608 3.43541 10.152 4.00075 10.8813C4.56609 11.6106 5.357 12.1322 6.25 12.3646V19.7917H19.7917V12.3646C21.625 11.8854 22.9167 10.2292 22.9167 8.33333C22.9167 7.22826 22.4777 6.16846 21.6963 5.38705C20.9149 4.60565 19.8551 4.16667 18.75 4.16667C18.1458 4.16667 17.5625 4.30208 17.0104 4.55208C16.4896 2.78125 14.8646 1.5625 13.0208 1.5625ZM12.5 10.9375H13.5417V18.2292H12.5V10.9375ZM9.375 13.0208H10.4167V18.2292H9.375V13.0208ZM15.625 13.0208H16.6667V18.2292H15.625V13.0208ZM6.25 20.8333V21.875C6.25 22.1513 6.35975 22.4162 6.5551 22.6116C6.75045 22.8069 7.0154 22.9167 7.29167 22.9167H18.75C19.0263 22.9167 19.2912 22.8069 19.4866 22.6116C19.6819 22.4162 19.7917 22.1513 19.7917 21.875V20.8333H6.25Z" fill="#283450"/>
<path d="M19.9338 25.49V38H17.8818V29.432L14.0658 38H12.6438L8.80981 29.432V38H6.75781V25.49H8.97181L13.3638 35.3L17.7378 25.49H19.9338ZM21.6469 32.996C21.6469 32 21.8509 31.118 22.2589 30.35C22.6789 29.582 23.2429 28.988 23.9509 28.568C24.6709 28.136 25.4629 27.92 26.3269 27.92C27.1069 27.92 27.7849 28.076 28.3609 28.388C28.9489 28.688 29.4169 29.066 29.7649 29.522V28.082H31.8349V38H29.7649V36.524C29.4169 36.992 28.9429 37.382 28.3429 37.694C27.7429 38.006 27.0589 38.162 26.2909 38.162C25.4389 38.162 24.6589 37.946 23.9509 37.514C23.2429 37.07 22.6789 36.458 22.2589 35.678C21.8509 34.886 21.6469 33.992 21.6469 32.996ZM29.7649 33.032C29.7649 32.348 29.6209 31.754 29.3329 31.25C29.0569 30.746 28.6909 30.362 28.2349 30.098C27.7789 29.834 27.2869 29.702 26.7589 29.702C26.2309 29.702 25.7389 29.834 25.2829 30.098C24.8269 30.35 24.4549 30.728 24.1669 31.232C23.8909 31.724 23.7529 32.312 23.7529 32.996C23.7529 33.68 23.8909 34.28 24.1669 34.796C24.4549 35.312 24.8269 35.708 25.2829 35.984C25.7509 36.248 26.2429 36.38 26.7589 36.38C27.2869 36.38 27.7789 36.248 28.2349 35.984C28.6909 35.72 29.0569 35.336 29.3329 34.832C29.6209 34.316 29.7649 33.716 29.7649 33.032ZM37.8301 38.162C37.0501 38.162 36.3481 38.024 35.7241 37.748C35.1121 37.46 34.6261 37.076 34.2661 36.596C33.9061 36.104 33.7141 35.558 33.6901 34.958H35.8141C35.8501 35.378 36.0481 35.732 36.4081 36.02C36.7801 36.296 37.2421 36.434 37.7941 36.434C38.3701 36.434 38.8141 36.326 39.1261 36.11C39.4501 35.882 39.6121 35.594 39.6121 35.246C39.6121 34.874 39.4321 34.598 39.0721 34.418C38.7241 34.238 38.1661 34.04 37.3981 33.824C36.6541 33.62 36.0481 33.422 35.5801 33.23C35.1121 33.038 34.7041 32.744 34.3561 32.348C34.0201 31.952 33.8521 31.43 33.8521 30.782C33.8521 30.254 34.0081 29.774 34.3201 29.342C34.6321 28.898 35.0761 28.55 35.6521 28.298C36.2401 28.046 36.9121 27.92 37.6681 27.92C38.7961 27.92 39.7021 28.208 40.3861 28.784C41.0821 29.348 41.4541 30.122 41.5021 31.106H39.4501C39.4141 30.662 39.2341 30.308 38.9101 30.044C38.5861 29.78 38.1481 29.648 37.5961 29.648C37.0561 29.648 36.6421 29.75 36.3541 29.954C36.0661 30.158 35.9221 30.428 35.9221 30.764C35.9221 31.028 36.0181 31.25 36.2101 31.43C36.4021 31.61 36.6361 31.754 36.9121 31.862C37.1881 31.958 37.5961 32.084 38.1361 32.24C38.8561 32.432 39.4441 32.63 39.9001 32.834C40.3681 33.026 40.7701 33.314 41.1061 33.698C41.4421 34.082 41.6161 34.592 41.6281 35.228C41.6281 35.792 41.4721 36.296 41.1601 36.74C40.8481 37.184 40.4041 37.532 39.8281 37.784C39.2641 38.036 38.5981 38.162 37.8301 38.162ZM45.9393 29.756V35.246C45.9393 35.618 46.0233 35.888 46.1913 36.056C46.3713 36.212 46.6713 36.29 47.0913 36.29H48.3513V38H46.7313C45.8073 38 45.0993 37.784 44.6073 37.352C44.1153 36.92 43.8693 36.218 43.8693 35.246V29.756H42.6993V28.082H43.8693V25.616H45.9393V28.082H48.3513V29.756H45.9393ZM59.0326 32.798C59.0326 33.17 59.0086 33.506 58.9606 33.806H51.3826C51.4426 34.598 51.7366 35.234 52.2646 35.714C52.7926 36.194 53.4406 36.434 54.2086 36.434C55.3126 36.434 56.0926 35.972 56.5486 35.048H58.7626C58.4626 35.96 57.9166 36.71 57.1246 37.298C56.3446 37.874 55.3726 38.162 54.2086 38.162C53.2606 38.162 52.4086 37.952 51.6526 37.532C50.9086 37.1 50.3206 36.5 49.8886 35.732C49.4686 34.952 49.2586 34.052 49.2586 33.032C49.2586 32.012 49.4626 31.118 49.8706 30.35C50.2906 29.57 50.8726 28.97 51.6166 28.55C52.3726 28.13 53.2366 27.92 54.2086 27.92C55.1446 27.92 55.9786 28.124 56.7106 28.532C57.4426 28.94 58.0126 29.516 58.4206 30.26C58.8286 30.992 59.0326 31.838 59.0326 32.798ZM56.8906 32.15C56.8786 31.394 56.6086 30.788 56.0806 30.332C55.5526 29.876 54.8986 29.648 54.1186 29.648C53.4106 29.648 52.8046 29.876 52.3006 30.332C51.7966 30.776 51.4966 31.382 51.4006 32.15H56.8906ZM62.804 29.522C63.104 29.018 63.5 28.628 63.992 28.352C64.496 28.064 65.09 27.92 65.774 27.92V30.044H65.252C64.448 30.044 63.836 30.248 63.416 30.656C63.008 31.064 62.804 31.772 62.804 32.78V38H60.752V28.082H62.804V29.522ZM78.2339 38L75.3539 32.996H73.7879V38H71.7359V25.49H76.0559C77.0159 25.49 77.8259 25.658 78.4859 25.994C79.1579 26.33 79.6559 26.78 79.9799 27.344C80.3159 27.908 80.4839 28.538 80.4839 29.234C80.4839 30.05 80.2439 30.794 79.7639 31.466C79.2959 32.126 78.5699 32.576 77.5859 32.816L80.6819 38H78.2339ZM73.7879 31.358H76.0559C76.8239 31.358 77.3999 31.166 77.7839 30.782C78.1799 30.398 78.3779 29.882 78.3779 29.234C78.3779 28.586 78.1859 28.082 77.8019 27.722C77.4179 27.35 76.8359 27.164 76.0559 27.164H73.7879V31.358ZM91.899 32.798C91.899 33.17 91.875 33.506 91.827 33.806H84.249C84.309 34.598 84.603 35.234 85.131 35.714C85.659 36.194 86.307 36.434 87.075 36.434C88.179 36.434 88.959 35.972 89.415 35.048H91.629C91.329 35.96 90.783 36.71 89.991 37.298C89.211 37.874 88.239 38.162 87.075 38.162C86.127 38.162 85.275 37.952 84.519 37.532C83.775 37.1 83.187 36.5 82.755 35.732C82.335 34.952 82.125 34.052 82.125 33.032C82.125 32.012 82.329 31.118 82.737 30.35C83.157 29.57 83.739 28.97 84.483 28.55C85.239 28.13 86.103 27.92 87.075 27.92C88.011 27.92 88.845 28.124 89.577 28.532C90.309 28.94 90.879 29.516 91.287 30.26C91.695 30.992 91.899 31.838 91.899 32.798ZM89.757 32.15C89.745 31.394 89.475 30.788 88.947 30.332C88.419 29.876 87.765 29.648 86.985 29.648C86.277 29.648 85.671 29.876 85.167 30.332C84.663 30.776 84.363 31.382 84.267 32.15H89.757ZM97.2184 38.162C96.4384 38.162 95.7364 38.024 95.1124 37.748C94.5004 37.46 94.0144 37.076 93.6544 36.596C93.2944 36.104 93.1024 35.558 93.0784 34.958H95.2024C95.2384 35.378 95.4364 35.732 95.7964 36.02C96.1684 36.296 96.6304 36.434 97.1824 36.434C97.7584 36.434 98.2024 36.326 98.5144 36.11C98.8384 35.882 99.0004 35.594 99.0004 35.246C99.0004 34.874 98.8204 34.598 98.4604 34.418C98.1124 34.238 97.5544 34.04 96.7864 33.824C96.0424 33.62 95.4364 33.422 94.9684 33.23C94.5004 33.038 94.0924 32.744 93.7444 32.348C93.4084 31.952 93.2404 31.43 93.2404 30.782C93.2404 30.254 93.3964 29.774 93.7084 29.342C94.0204 28.898 94.4644 28.55 95.0404 28.298C95.6284 28.046 96.3004 27.92 97.0564 27.92C98.1844 27.92 99.0904 28.208 99.7744 28.784C100.47 29.348 100.842 30.122 100.89 31.106H98.8384C98.8024 30.662 98.6224 30.308 98.2984 30.044C97.9744 29.78 97.5364 29.648 96.9844 29.648C96.4444 29.648 96.0304 29.75 95.7424 29.954C95.4544 30.158 95.3104 30.428 95.3104 30.764C95.3104 31.028 95.4064 31.25 95.5984 31.43C95.7904 31.61 96.0244 31.754 96.3004 31.862C96.5764 31.958 96.9844 32.084 97.5244 32.24C98.2444 32.432 98.8324 32.63 99.2884 32.834C99.7564 33.026 100.158 33.314 100.494 33.698C100.83 34.082 101.004 34.592 101.016 35.228C101.016 35.792 100.86 36.296 100.548 36.74C100.236 37.184 99.7924 37.532 99.2164 37.784C98.6524 38.036 97.9864 38.162 97.2184 38.162ZM112.024 32.798C112.024 33.17 112 33.506 111.952 33.806H104.374C104.434 34.598 104.728 35.234 105.256 35.714C105.784 36.194 106.432 36.434 107.2 36.434C108.304 36.434 109.084 35.972 109.54 35.048H111.754C111.454 35.96 110.908 36.71 110.116 37.298C109.336 37.874 108.364 38.162 107.2 38.162C106.252 38.162 105.4 37.952 104.644 37.532C103.9 37.1 103.312 36.5 102.88 35.732C102.46 34.952 102.25 34.052 102.25 33.032C102.25 32.012 102.454 31.118 102.862 30.35C103.282 29.57 103.864 28.97 104.608 28.55C105.364 28.13 106.228 27.92 107.2 27.92C108.136 27.92 108.97 28.124 109.702 28.532C110.434 28.94 111.004 29.516 111.412 30.26C111.82 30.992 112.024 31.838 112.024 32.798ZM109.882 32.15C109.87 31.394 109.6 30.788 109.072 30.332C108.544 29.876 107.89 29.648 107.11 29.648C106.402 29.648 105.796 29.876 105.292 30.332C104.788 30.776 104.488 31.382 104.392 32.15H109.882ZM115.795 29.54C116.143 29.084 116.617 28.7 117.217 28.388C117.817 28.076 118.495 27.92 119.251 27.92C120.115 27.92 120.901 28.136 121.609 28.568C122.329 28.988 122.893 29.582 123.301 30.35C123.709 31.118 123.913 32 123.913 32.996C123.913 33.992 123.709 34.886 123.301 35.678C122.893 36.458 122.329 37.07 121.609 37.514C120.901 37.946 120.115 38.162 119.251 38.162C118.495 38.162 117.823 38.012 117.235 37.712C116.647 37.4 116.167 37.016 115.795 36.56V42.716H113.743V28.082H115.795V29.54ZM121.825 32.996C121.825 32.312 121.681 31.724 121.393 31.232C121.117 30.728 120.745 30.35 120.277 30.098C119.821 29.834 119.329 29.702 118.801 29.702C118.285 29.702 117.793 29.834 117.325 30.098C116.869 30.362 116.497 30.746 116.209 31.25C115.933 31.754 115.795 32.348 115.795 33.032C115.795 33.716 115.933 34.316 116.209 34.832C116.497 35.336 116.869 35.72 117.325 35.984C117.793 36.248 118.285 36.38 118.801 36.38C119.329 36.38 119.821 36.248 120.277 35.984C120.745 35.708 121.117 35.312 121.393 34.796C121.681 34.28 121.825 33.68 121.825 32.996Z" fill="#283450"/>
</svg>
