<svg width="188" height="108" viewBox="0 0 188 108" fill="none" xmlns="http://www.w3.org/2000/svg">
<path d="M95.375 4.125C90.5075 4.125 86.2175 7.3425 84.8425 12.0175C83.385 11.3575 81.845 11 80.25 11C77.3326 11 74.5347 12.1589 72.4718 14.2218C70.4089 16.2847 69.25 19.0826 69.25 22C69.2565 24.436 70.0695 26.8014 71.562 28.7267C73.0545 30.652 75.1425 32.0289 77.5 32.6425V52.25H113.25V32.6425C118.09 31.3775 121.5 27.005 121.5 22C121.5 19.0826 120.341 16.2847 118.278 14.2218C116.215 12.1589 113.417 11 110.5 11C108.905 11 107.365 11.3575 105.907 12.0175C104.532 7.3425 100.242 4.125 95.375 4.125V4.125ZM94 28.875H96.75V48.125H94V28.875ZM85.75 34.375H88.5V48.125H85.75V34.375V34.375ZM102.25 34.375H105V48.125H102.25V34.375ZM77.5 55V57.75C77.5 58.4793 77.7897 59.1788 78.3055 59.6945C78.8212 60.2103 79.5207 60.5 80.25 60.5H110.5C111.229 60.5 111.929 60.2103 112.445 59.6945C112.96 59.1788 113.25 58.4793 113.25 57.75V55H77.5Z" fill="#283450"/>
<path d="M22.9804 77.54V97H19.7884V83.672L13.8524 97H11.6404L5.67638 83.672V97H2.48438V77.54H5.92838L12.7604 92.8L19.5644 77.54H22.9804ZM25.8118 89.216C25.8118 87.6667 26.1291 86.2947 26.7638 85.1C27.4171 83.9053 28.2945 82.9813 29.3958 82.328C30.5158 81.656 31.7478 81.32 33.0918 81.32C34.3051 81.32 35.3598 81.5627 36.2558 82.048C37.1705 82.5147 37.8985 83.1027 38.4398 83.812V81.572H41.6598V97H38.4398V94.704C37.8985 95.432 37.1611 96.0387 36.2278 96.524C35.2945 97.0093 34.2305 97.252 33.0358 97.252C31.7105 97.252 30.4971 96.916 29.3958 96.244C28.2945 95.5533 27.4171 94.6013 26.7638 93.388C26.1291 92.156 25.8118 90.7653 25.8118 89.216ZM38.4398 89.272C38.4398 88.208 38.2158 87.284 37.7678 86.5C37.3385 85.716 36.7691 85.1187 36.0598 84.708C35.3505 84.2973 34.5851 84.092 33.7638 84.092C32.9425 84.092 32.1771 84.2973 31.4678 84.708C30.7585 85.1 30.1798 85.688 29.7318 86.472C29.3025 87.2373 29.0878 88.152 29.0878 89.216C29.0878 90.28 29.3025 91.2133 29.7318 92.016C30.1798 92.8187 30.7585 93.4347 31.4678 93.864C32.1958 94.2747 32.9611 94.48 33.7638 94.48C34.5851 94.48 35.3505 94.2747 36.0598 93.864C36.7691 93.4533 37.3385 92.856 37.7678 92.072C38.2158 91.2693 38.4398 90.336 38.4398 89.272ZM51.1523 97.252C49.939 97.252 48.847 97.0373 47.8763 96.608C46.9243 96.16 46.1683 95.5627 45.6083 94.816C45.0483 94.0507 44.7497 93.2013 44.7123 92.268H48.0163C48.0723 92.9213 48.3803 93.472 48.9403 93.92C49.519 94.3493 50.2377 94.564 51.0963 94.564C51.9923 94.564 52.683 94.396 53.1683 94.06C53.6723 93.7053 53.9243 93.2573 53.9243 92.716C53.9243 92.1373 53.6443 91.708 53.0843 91.428C52.543 91.148 51.675 90.84 50.4803 90.504C49.323 90.1867 48.3803 89.8787 47.6523 89.58C46.9243 89.2813 46.2897 88.824 45.7483 88.208C45.2257 87.592 44.9643 86.78 44.9643 85.772C44.9643 84.9507 45.207 84.204 45.6923 83.532C46.1777 82.8413 46.8683 82.3 47.7643 81.908C48.679 81.516 49.7243 81.32 50.9003 81.32C52.655 81.32 54.0643 81.768 55.1283 82.664C56.211 83.5413 56.7897 84.7453 56.8643 86.276H53.6723C53.6163 85.5853 53.3363 85.0347 52.8323 84.624C52.3283 84.2133 51.647 84.008 50.7883 84.008C49.9483 84.008 49.3043 84.1667 48.8563 84.484C48.4083 84.8013 48.1843 85.2213 48.1843 85.744C48.1843 86.1547 48.3337 86.5 48.6323 86.78C48.931 87.06 49.295 87.284 49.7243 87.452C50.1537 87.6013 50.7883 87.7973 51.6283 88.04C52.7483 88.3387 53.663 88.6467 54.3723 88.964C55.1003 89.2627 55.7257 89.7107 56.2483 90.308C56.771 90.9053 57.0417 91.6987 57.0603 92.688C57.0603 93.5653 56.8177 94.3493 56.3323 95.04C55.847 95.7307 55.1563 96.272 54.2603 96.664C53.383 97.056 52.347 97.252 51.1523 97.252ZM63.9334 84.176V92.716C63.9334 93.2947 64.064 93.7147 64.3254 93.976C64.6054 94.2187 65.072 94.34 65.7254 94.34H67.6854V97H65.1654C63.728 97 62.6267 96.664 61.8614 95.992C61.096 95.32 60.7134 94.228 60.7134 92.716V84.176H58.8934V81.572H60.7134V77.736H63.9334V81.572H67.6854V84.176H63.9334ZM84.4673 88.908C84.4673 89.4867 84.43 90.0093 84.3553 90.476H72.5673C72.6607 91.708 73.118 92.6973 73.9393 93.444C74.7607 94.1907 75.7687 94.564 76.9633 94.564C78.6807 94.564 79.894 93.8453 80.6033 92.408H84.0473C83.5807 93.8267 82.7313 94.9933 81.4993 95.908C80.286 96.804 78.774 97.252 76.9633 97.252C75.4887 97.252 74.1633 96.9253 72.9873 96.272C71.83 95.6 70.9153 94.6667 70.2433 93.472C69.59 92.2587 69.2633 90.8587 69.2633 89.272C69.2633 87.6853 69.5807 86.2947 70.2153 85.1C70.8687 83.8867 71.774 82.9533 72.9313 82.3C74.1073 81.6467 75.4513 81.32 76.9633 81.32C78.4193 81.32 79.7167 81.6373 80.8553 82.272C81.994 82.9067 82.8807 83.8027 83.5153 84.96C84.15 86.0987 84.4673 87.4147 84.4673 88.908ZM81.1353 87.9C81.1167 86.724 80.6967 85.7813 79.8753 85.072C79.054 84.3627 78.0367 84.008 76.8233 84.008C75.722 84.008 74.7793 84.3627 73.9953 85.072C73.2113 85.7627 72.7447 86.7053 72.5953 87.9H81.1353ZM90.5006 83.812C90.9673 83.028 91.5833 82.4213 92.3486 81.992C93.1326 81.544 94.0566 81.32 95.1206 81.32V84.624H94.3086C93.0579 84.624 92.1059 84.9413 91.4526 85.576C90.8179 86.2107 90.5006 87.312 90.5006 88.88V97H87.3086V81.572H90.5006V83.812ZM114.836 97L110.356 89.216H107.92V97H104.728V77.54H111.448C112.941 77.54 114.201 77.8013 115.228 78.324C116.273 78.8467 117.048 79.5467 117.552 80.424C118.075 81.3013 118.336 82.2813 118.336 83.364C118.336 84.6333 117.963 85.7907 117.216 86.836C116.488 87.8627 115.359 88.5627 113.828 88.936L118.644 97H114.836ZM107.92 86.668H111.448C112.643 86.668 113.539 86.3693 114.136 85.772C114.752 85.1747 115.06 84.372 115.06 83.364C115.06 82.356 114.761 81.572 114.164 81.012C113.567 80.4333 112.661 80.144 111.448 80.144H107.92V86.668ZM136.26 88.908C136.26 89.4867 136.222 90.0093 136.148 90.476H124.36C124.453 91.708 124.91 92.6973 125.732 93.444C126.553 94.1907 127.561 94.564 128.756 94.564C130.473 94.564 131.686 93.8453 132.396 92.408H135.84C135.373 93.8267 134.524 94.9933 133.292 95.908C132.078 96.804 130.566 97.252 128.756 97.252C127.281 97.252 125.956 96.9253 124.78 96.272C123.622 95.6 122.708 94.6667 122.036 93.472C121.382 92.2587 121.056 90.8587 121.056 89.272C121.056 87.6853 121.373 86.2947 122.008 85.1C122.661 83.8867 123.566 82.9533 124.724 82.3C125.9 81.6467 127.244 81.32 128.756 81.32C130.212 81.32 131.509 81.6373 132.648 82.272C133.786 82.9067 134.673 83.8027 135.308 84.96C135.942 86.0987 136.26 87.4147 136.26 88.908ZM132.928 87.9C132.909 86.724 132.489 85.7813 131.668 85.072C130.846 84.3627 129.829 84.008 128.616 84.008C127.514 84.008 126.572 84.3627 125.788 85.072C125.004 85.7627 124.537 86.7053 124.388 87.9H132.928ZM144.701 97.252C143.487 97.252 142.395 97.0373 141.425 96.608C140.473 96.16 139.717 95.5627 139.157 94.816C138.597 94.0507 138.298 93.2013 138.261 92.268H141.565C141.621 92.9213 141.929 93.472 142.489 93.92C143.067 94.3493 143.786 94.564 144.645 94.564C145.541 94.564 146.231 94.396 146.717 94.06C147.221 93.7053 147.473 93.2573 147.473 92.716C147.473 92.1373 147.193 91.708 146.633 91.428C146.091 91.148 145.223 90.84 144.029 90.504C142.871 90.1867 141.929 89.8787 141.201 89.58C140.473 89.2813 139.838 88.824 139.297 88.208C138.774 87.592 138.513 86.78 138.513 85.772C138.513 84.9507 138.755 84.204 139.241 83.532C139.726 82.8413 140.417 82.3 141.313 81.908C142.227 81.516 143.273 81.32 144.449 81.32C146.203 81.32 147.613 81.768 148.677 82.664C149.759 83.5413 150.338 84.7453 150.413 86.276H147.221C147.165 85.5853 146.885 85.0347 146.381 84.624C145.877 84.2133 145.195 84.008 144.337 84.008C143.497 84.008 142.853 84.1667 142.405 84.484C141.957 84.8013 141.733 85.2213 141.733 85.744C141.733 86.1547 141.882 86.5 142.181 86.78C142.479 87.06 142.843 87.284 143.273 87.452C143.702 87.6013 144.337 87.7973 145.177 88.04C146.297 88.3387 147.211 88.6467 147.921 88.964C148.649 89.2627 149.274 89.7107 149.797 90.308C150.319 90.9053 150.59 91.6987 150.609 92.688C150.609 93.5653 150.366 94.3493 149.881 95.04C149.395 95.7307 148.705 96.272 147.809 96.664C146.931 97.056 145.895 97.252 144.701 97.252ZM167.898 88.908C167.898 89.4867 167.86 90.0093 167.786 90.476H155.998C156.091 91.708 156.548 92.6973 157.37 93.444C158.191 94.1907 159.199 94.564 160.394 94.564C162.111 94.564 163.324 93.8453 164.034 92.408H167.478C167.011 93.8267 166.162 94.9933 164.93 95.908C163.716 96.804 162.204 97.252 160.394 97.252C158.919 97.252 157.594 96.9253 156.418 96.272C155.26 95.6 154.346 94.6667 153.674 93.472C153.02 92.2587 152.694 90.8587 152.694 89.272C152.694 87.6853 153.011 86.2947 153.646 85.1C154.299 83.8867 155.204 82.9533 156.362 82.3C157.538 81.6467 158.882 81.32 160.394 81.32C161.85 81.32 163.147 81.6373 164.286 82.272C165.424 82.9067 166.311 83.8027 166.946 84.96C167.58 86.0987 167.898 87.4147 167.898 88.908ZM164.566 87.9C164.547 86.724 164.127 85.7813 163.306 85.072C162.484 84.3627 161.467 84.008 160.254 84.008C159.152 84.008 158.21 84.3627 157.426 85.072C156.642 85.7627 156.175 86.7053 156.026 87.9H164.566ZM173.931 83.84C174.472 83.1307 175.21 82.5333 176.143 82.048C177.076 81.5627 178.131 81.32 179.307 81.32C180.651 81.32 181.874 81.656 182.975 82.328C184.095 82.9813 184.972 83.9053 185.607 85.1C186.242 86.2947 186.559 87.6667 186.559 89.216C186.559 90.7653 186.242 92.156 185.607 93.388C184.972 94.6013 184.095 95.5533 182.975 96.244C181.874 96.916 180.651 97.252 179.307 97.252C178.131 97.252 177.086 97.0187 176.171 96.552C175.256 96.0667 174.51 95.4693 173.931 94.76V104.336H170.739V81.572H173.931V83.84ZM183.311 89.216C183.311 88.152 183.087 87.2373 182.639 86.472C182.21 85.688 181.631 85.1 180.903 84.708C180.194 84.2973 179.428 84.092 178.607 84.092C177.804 84.092 177.039 84.2973 176.311 84.708C175.602 85.1187 175.023 85.716 174.575 86.5C174.146 87.284 173.931 88.208 173.931 89.272C173.931 90.336 174.146 91.2693 174.575 92.072C175.023 92.856 175.602 93.4533 176.311 93.864C177.039 94.2747 177.804 94.48 178.607 94.48C179.428 94.48 180.194 94.2747 180.903 93.864C181.631 93.4347 182.21 92.8187 182.639 92.016C183.087 91.2133 183.311 90.28 183.311 89.216Z" fill="#283450"/>
</svg>
