<svg width="29" height="29" viewBox="0 0 29 29" fill="none" xmlns="http://www.w3.org/2000/svg">
<path d="M14.5 0.90625C7.00441 0.90625 0.90625 7.00441 0.90625 14.5C0.90625 21.9956 7.00441 28.0937 14.5 28.0937C21.9956 28.0937 28.0937 21.9956 28.0937 14.5C28.0937 7.00441 21.9956 0.90625 14.5 0.90625ZM14.5 25.375C8.5038 25.375 3.625 20.4962 3.625 14.5C3.625 8.5038 8.5038 3.625 14.5 3.625C20.4962 3.625 25.375 8.5038 25.375 14.5C25.375 20.4962 20.4962 25.375 14.5 25.375Z" fill="#38DB6A"/>
<path d="M15.8594 7.70313H13.1406V15.8594H21.2969V13.1406H15.8594V7.70313Z" fill="#38DB6A"/>
</svg>
