<svg width="25" height="25" viewBox="0 0 25 25" fill="none" xmlns="http://www.w3.org/2000/svg">
<path d="M16.8656 2.08331C20.0833 2.08331 21.875 3.93748 21.875 7.11456V17.875C21.875 21.1041 20.0833 22.9166 16.8656 22.9166H8.13542C4.96875 22.9166 3.125 21.1041 3.125 17.875V7.11456C3.125 3.93748 4.96875 2.08331 8.13542 2.08331H16.8656ZM8.41667 16.3958C8.10417 16.3646 7.80208 16.5104 7.63542 16.7812C7.46875 17.0416 7.46875 17.3854 7.63542 17.6562C7.80208 17.9166 8.10417 18.0729 8.41667 18.0312H16.5833C16.999 17.9896 17.3125 17.6344 17.3125 17.2187C17.3125 16.7916 16.999 16.4375 16.5833 16.3958H8.41667ZM16.5833 11.6448H8.41667C7.96771 11.6448 7.60417 12.0104 7.60417 12.4583C7.60417 12.9062 7.96771 13.2708 8.41667 13.2708H16.5833C17.0312 13.2708 17.3958 12.9062 17.3958 12.4583C17.3958 12.0104 17.0312 11.6448 16.5833 11.6448ZM11.5302 6.92706H8.41667V6.93748C7.96771 6.93748 7.60417 7.30206 7.60417 7.74998C7.60417 8.1979 7.96771 8.56248 8.41667 8.56248H11.5302C11.9792 8.56248 12.3438 8.1979 12.3438 7.73852C12.3438 7.29165 11.9792 6.92706 11.5302 6.92706Z" fill="#283450"/>
</svg>
