<svg width="25" height="25" viewBox="0 0 25 25" fill="none" xmlns="http://www.w3.org/2000/svg">
<path opacity="0.4" d="M2.08331 6.71567C2.08331 4.16254 4.19815 2.08337 6.79637 2.08337H11.9642C14.5571 2.08337 16.6666 4.15629 16.6666 6.70525V18.2844C16.6666 20.8386 14.5518 22.9167 11.9525 22.9167H6.78683C4.19285 22.9167 2.08331 20.8438 2.08331 18.2948V17.3157V6.71567Z" fill="#283450"/>
<path d="M22.6864 11.9322L19.722 8.90196C19.4157 8.58946 18.9226 8.58946 18.6172 8.90405C18.3129 9.21863 18.3139 9.72592 18.6193 10.0384L20.2435 11.6978H18.6862H9.94632C9.51516 11.6978 9.16516 12.0572 9.16516 12.4999C9.16516 12.9436 9.51516 13.302 9.94632 13.302H20.2435L18.6193 14.9613C18.3139 15.2738 18.3129 15.7811 18.6172 16.0957C18.7704 16.253 18.9703 16.3322 19.1712 16.3322C19.37 16.3322 19.5699 16.253 19.722 16.0978L22.6864 13.0686C22.8335 12.9176 22.9167 12.7134 22.9167 12.4999C22.9167 12.2874 22.8335 12.0832 22.6864 11.9322Z" fill="#283450"/>
</svg>
