<svg width="25" height="25" viewBox="0 0 25 25" fill="none" xmlns="http://www.w3.org/2000/svg">
<path d="M22.662 21.4651L19.0814 17.9644L18.9975 17.8368C18.8414 17.6814 18.6281 17.5939 18.4054 17.5939C18.1827 17.5939 17.9693 17.6814 17.8133 17.8368C14.7703 20.6285 10.0814 20.7802 6.85625 18.1914C3.63111 15.6025 2.87049 11.0764 5.07884 7.61477C7.28719 4.15311 11.7792 2.83006 15.5759 4.52307C19.3725 6.21608 21.2956 10.3998 20.0698 14.2996C19.9815 14.5813 20.0537 14.8877 20.2591 15.1033C20.4645 15.3189 20.772 15.411 21.0657 15.3449C21.3594 15.2788 21.5947 15.0645 21.683 14.7828C23.1483 10.1548 20.9351 5.17455 16.4751 3.06361C12.0151 0.952678 6.64671 2.34462 3.84276 6.33899C1.03882 10.3334 1.64081 15.7314 5.2593 19.0412C8.87779 22.3509 14.4269 22.5791 18.3168 19.578L21.4871 22.6776C21.8146 22.9964 22.3439 22.9964 22.6714 22.6776C22.9984 22.3544 22.9984 21.834 22.6714 21.5107L22.662 21.4651Z" fill="#283450"/>
</svg>
