<svg width="26" height="26" viewBox="0 0 26 26" fill="none" xmlns="http://www.w3.org/2000/svg">
<path opacity="0.4" d="M21.6305 20.1826H15.699C15.1203 20.1826 14.6496 20.6608 14.6496 21.2486C14.6496 21.8376 15.1203 22.3146 15.699 22.3146H21.6305C22.2093 22.3146 22.6799 21.8376 22.6799 21.2486C22.6799 20.6608 22.2093 20.1826 21.6305 20.1826Z" fill="#283450"/>
<path d="M11.5435 7.63124L17.1642 12.173C17.2998 12.2816 17.3229 12.4809 17.2171 12.6198L10.5536 21.3024C10.1347 21.8388 9.51745 22.1423 8.85606 22.1535L5.21843 22.1983C5.02442 22.2005 4.85467 22.0661 4.81058 21.8735L3.98384 18.2791C3.84054 17.6184 3.98384 16.9354 4.40272 16.4091L11.0993 7.68499C11.2073 7.54502 11.4068 7.52038 11.5435 7.63124Z" fill="#283450"/>
<path opacity="0.4" d="M19.6805 9.4662L18.597 10.8189C18.4878 10.9566 18.2916 10.979 18.156 10.8693C16.8388 9.80325 13.4657 7.06766 12.5298 6.30958C12.3931 6.19761 12.3744 5.99829 12.4846 5.85944L13.5296 4.56163C14.4776 3.34109 16.1311 3.22911 17.4649 4.29289L18.9971 5.51343C19.6254 6.00613 20.0443 6.65559 20.1876 7.33865C20.3529 8.09001 20.1766 8.82793 19.6805 9.4662Z" fill="#283450"/>
</svg>
