<svg width="25" height="25" viewBox="0 0 25 25" fill="none" xmlns="http://www.w3.org/2000/svg">
<path d="M20.8333 19.0939C20.8333 22.5198 16.0776 22.9167 12.5 22.9167C12.1394 22.9167 11.7841 22.9115 11.435 22.9011C11.0199 22.8906 10.6929 22.5459 10.7054 22.1323C10.717 21.7198 11.0755 21.4094 11.478 21.4063C11.8134 21.4157 12.1541 21.4198 12.5 21.4198C17.0304 21.4198 19.3281 20.6376 19.3281 19.0939C19.3281 17.5356 17.0304 16.745 12.5 16.745C7.9696 16.745 5.6719 17.5283 5.6719 19.073C5.6719 19.5782 5.8522 20.3105 7.41719 20.8376C7.81132 20.9699 8.02201 21.3938 7.88889 21.7844C7.75471 22.175 7.32914 22.3886 6.93396 22.2532C4.64675 21.4834 4.16666 20.099 4.16666 19.073C4.16666 15.716 8.7303 15.2666 12.2795 15.2497L12.8967 15.2499C15.2637 15.262 20.8333 15.471 20.8333 19.0939ZM12.5 2.08334C15.5943 2.08334 18.1111 4.58536 18.1111 7.66029C18.1111 10.7342 15.5943 13.2362 12.5 13.2362C9.40566 13.2362 6.88784 10.7342 6.88784 7.66029C6.88784 4.58536 9.40566 2.08334 12.5 2.08334ZM12.5 3.58018C10.2358 3.58018 8.39413 5.41034 8.39413 7.66029C8.39413 9.90919 10.2358 11.7394 12.5 11.7394C14.7641 11.7394 16.6059 9.90919 16.6059 7.66029C16.6059 5.41034 14.7641 3.58018 12.5 3.58018Z" fill="#283450"/>
</svg>
