<svg width="25" height="25" viewBox="0 0 25 25" fill="none" xmlns="http://www.w3.org/2000/svg">
<path d="M16.9333 20.5816C17.2433 20.2746 17.2711 19.7928 17.0095 19.4566L16.931 19.3688L9.29972 11.8932C8.95812 11.5583 8.40623 11.5594 8.06695 11.8955C7.89848 12.0623 7.8125 12.2818 7.8125 12.5001C7.8125 12.684 7.87221 12.867 7.99095 13.0195L8.06928 13.1071L15.7006 20.5827C16.0422 20.9177 16.5941 20.9165 16.9333 20.5816ZM16.9309 5.63238C17.2737 5.29747 17.2713 4.75451 16.9332 4.41959C16.6222 4.11154 16.1326 4.08491 15.79 4.3397L15.7005 4.41616L10.6323 9.38049C10.4615 9.54737 10.3755 9.76799 10.3755 9.98745C10.3755 10.2058 10.4615 10.4252 10.63 10.5921C10.941 10.9002 11.4306 10.9268 11.7732 10.672L11.8627 10.5956L16.9309 5.63238Z" fill="#283450"/>
</svg>
