<svg width="26" height="26" viewBox="0 0 26 26" fill="none" xmlns="http://www.w3.org/2000/svg">
<path d="M12.9195 15.519C11.2481 15.519 9.89618 14.2169 9.89618 12.5815C9.89618 10.946 11.2481 9.63354 12.9195 9.63354C14.5908 9.63354 15.9108 10.946 15.9108 12.5815C15.9108 14.2169 14.5908 15.519 12.9195 15.519Z" fill="#283450"/>
<path opacity="0.4" d="M22.5216 15.0398C22.3193 14.7273 22.0319 14.4148 21.6593 14.2169C21.3613 14.0711 21.1696 13.8315 20.9993 13.5503C20.4564 12.6544 20.7758 11.4773 21.6806 10.9461C22.7452 10.3523 23.0858 9.02942 22.4684 7.99817L21.7551 6.769C21.1483 5.73775 19.8177 5.37317 18.7638 5.97734C17.827 6.47734 16.6241 6.144 16.0811 5.25859C15.9108 4.96692 15.815 4.65442 15.8363 4.34192C15.8682 3.93567 15.7405 3.55025 15.5489 3.23775C15.155 2.59192 14.4417 2.15442 13.654 2.15442H12.153C11.3759 2.17525 10.6626 2.59192 10.2688 3.23775C10.0665 3.55025 9.9494 3.93567 9.97069 4.34192C9.99198 4.65442 9.89617 4.96692 9.72584 5.25859C9.18293 6.144 7.98 6.47734 7.05385 5.97734C5.98931 5.37317 4.66928 5.73775 4.05185 6.769L3.33861 7.99817C2.73182 9.02942 3.07247 10.3523 4.12637 10.9461C5.03123 11.4773 5.35059 12.6544 4.81832 13.5503C4.63735 13.8315 4.44573 14.0711 4.14766 14.2169C3.78572 14.4148 3.46635 14.7273 3.29603 15.0398C2.90215 15.6857 2.92344 16.4982 3.31732 17.1753L4.05185 18.4253C4.44573 19.0919 5.18026 19.5086 5.94673 19.5086C6.30867 19.5086 6.73449 19.4044 7.07514 19.1961C7.34127 19.019 7.66064 18.9565 8.01193 18.9565C9.06583 18.9565 9.9494 19.8211 9.97069 20.8523C9.97069 22.0503 10.9501 22.9878 12.1849 22.9878H13.6327C14.8569 22.9878 15.8363 22.0503 15.8363 20.8523C15.8682 19.8211 16.7518 18.9565 17.8057 18.9565C18.1463 18.9565 18.4657 19.019 18.7425 19.1961C19.0831 19.4044 19.4983 19.5086 19.8709 19.5086C20.6267 19.5086 21.3613 19.0919 21.7551 18.4253L22.5003 17.1753C22.8835 16.4773 22.9155 15.6857 22.5216 15.0398Z" fill="#283450"/>
</svg>
