<svg width="25" height="25" viewBox="0 0 25 25" fill="none" xmlns="http://www.w3.org/2000/svg">
<path d="M4.68682 7.32229C5.01545 7.22101 5.37854 7.33719 5.58572 7.62207C5.81593 7.93861 5.78869 8.37408 5.52084 8.65946L4.78714 9.20294C4.4395 9.49177 4.23726 9.91946 4.23461 10.3714V18.6595C4.24453 20.0096 5.33919 21.1002 6.68932 21.1051H10.856V21.1232C11.3062 21.1232 11.6712 21.4882 11.6712 21.9384C11.6712 22.3887 11.3062 22.7537 10.856 22.7537H6.68932C4.43522 22.7487 2.60915 20.9226 2.60417 18.6685V10.3714C2.61858 9.41265 3.06863 8.51256 3.827 7.92577L4.57881 7.36417L4.68682 7.32229ZM10.0227 2.91671C11.3981 1.81113 13.3574 1.81113 14.7328 2.91671L20.9919 7.90765C21.7335 8.50416 22.1689 9.40157 22.1784 10.3533L22.1694 18.6595C22.1694 20.9156 20.3404 22.7446 18.0842 22.7446H16.2727C15.1806 22.7446 14.2939 21.862 14.289 20.77V17.02L14.2805 16.9255C14.236 16.6805 14.0215 16.4946 13.7636 16.4946H11.0462C10.9053 16.4946 10.7703 16.5512 10.6715 16.6517C10.5727 16.7522 10.5184 16.8881 10.5208 17.029V18.4602C10.5208 18.9104 10.1559 19.2754 9.70562 19.2754C9.25539 19.2754 8.8904 18.9104 8.8904 18.4602V17.029C8.8904 16.4549 9.11849 15.9042 9.52448 15.4982C9.93046 15.0923 10.4811 14.8642 11.0553 14.8642H13.7727C14.9647 14.8692 15.9285 15.8369 15.9284 17.029V20.77C15.9284 20.9601 16.0826 21.1142 16.2727 21.1142H18.1295C19.4802 21.1142 20.5752 20.0192 20.5752 18.6685V10.3714C20.5686 9.91178 20.3557 9.47944 19.9955 9.19388L13.7364 4.20294C12.9472 3.55316 11.8083 3.55316 11.019 4.20294L9.00816 5.70657C8.63547 5.9742 8.11638 5.88904 7.84874 5.51635C7.5811 5.14366 7.66626 4.62457 8.03895 4.35693L10.0227 2.91671Z" fill="#283450"/>
</svg>
