<svg width="25" height="25" viewBox="0 0 25 25" fill="none" xmlns="http://www.w3.org/2000/svg">
<path d="M16.514 2.08334C19.8612 2.08334 21.8659 4.11609 21.875 7.51013V17.4899C21.875 20.8839 19.8794 22.9167 16.523 22.9167H13.5477C13.1661 22.874 12.8773 22.5471 12.8773 22.1578C12.8773 21.7686 13.1661 21.4417 13.5477 21.399H16.514C19.072 21.399 20.3601 20.0837 20.3601 17.4899V7.51013C20.3601 4.91631 19.072 3.601 16.514 3.601H8.47696C5.9189 3.601 4.62173 4.91631 4.62173 7.51013V17.4899C4.62173 20.0837 5.9189 21.399 8.47696 21.399C8.85853 21.4417 9.14734 21.7686 9.14734 22.1578C9.14734 22.5471 8.85853 22.874 8.47696 22.9167C5.12972 22.9167 3.125 20.8839 3.125 17.4899V7.51013C3.125 4.10689 5.12972 2.08334 8.47696 2.08334H16.514ZM16.2418 16.1562C16.6526 16.1562 16.9857 16.4939 16.9857 16.9104C16.9857 17.327 16.6526 17.6647 16.2418 17.6647H8.73095C8.32014 17.6647 7.98712 17.327 7.98712 16.9104C7.98712 16.4939 8.32014 16.1562 8.73095 16.1562H16.2418ZM16.2418 11.7412C16.5289 11.7091 16.8087 11.8463 16.9622 12.0944C17.1156 12.3424 17.1156 12.6576 16.9622 12.9057C16.8087 13.1537 16.5289 13.2909 16.2418 13.2588H8.73095C8.34938 13.2162 8.06056 12.8893 8.06056 12.5C8.06056 12.1108 8.34938 11.7838 8.73095 11.7412H16.2418ZM11.5974 7.33537C11.979 7.37803 12.2678 7.70495 12.2678 8.0942C12.2678 8.48345 11.979 8.81037 11.5974 8.85303H8.74002C8.35845 8.81037 8.06964 8.48345 8.06964 8.0942C8.06964 7.70495 8.35845 7.37803 8.74002 7.33537H11.5974Z" fill="#283450"/>
</svg>
