<svg width="25" height="25" viewBox="0 0 25 25" fill="none" xmlns="http://www.w3.org/2000/svg">
<path d="M18.3549 18.3899C18.7575 17.99 19.4029 17.99 19.8056 18.3899L22.4667 20.5379H22.5129C23.0513 21.0821 23.0513 21.9644 22.5129 22.5085C21.9745 23.0527 21.1016 23.0527 20.5633 22.5085L18.3549 19.9776L18.2711 19.883C18.115 19.6854 18.0288 19.4391 18.0288 19.1837C18.0288 18.8858 18.1461 18.6001 18.3549 18.3899ZM11.0184 2.08331C13.3881 2.08331 15.6608 3.03481 17.3364 4.72848C19.012 6.42216 19.9534 8.71927 19.9534 11.1145C19.9534 16.1023 15.9531 20.1457 11.0184 20.1457C6.08369 20.1457 2.08333 16.1023 2.08333 11.1145C2.08333 6.12671 6.08369 2.08331 11.0184 2.08331Z" fill="#283450"/>
</svg>
