<svg width="29" height="29" viewBox="0 0 29 29" fill="none" xmlns="http://www.w3.org/2000/svg">
<path d="M19.3333 26.5833C19.3333 26.5833 19.3333 24.2488 19.3345 24.244C20.3917 23.7191 21.3561 23.0253 22.1898 22.1898C23.2012 21.1811 24.0032 19.9825 24.5499 18.6628C25.0965 17.3431 25.3769 15.9284 25.375 14.5H3.625C3.625 17.5027 4.8424 20.2215 6.81017 22.1898C7.64717 23.0266 8.61456 23.7218 9.67452 24.2482L9.66667 26.5833H19.3333Z" stroke="#7C6BE7" stroke-width="2.08333" stroke-linecap="round" stroke-linejoin="round"/>
<path d="M14.5 10.8798V4.83333" stroke="#7C6BE7" stroke-width="2.08333" stroke-linecap="round" stroke-linejoin="round"/>
<path d="M21.75 10.8798V7.25" stroke="#7C6BE7" stroke-width="2.08333" stroke-linecap="round" stroke-linejoin="round"/>
<path d="M7.25 10.8798V7.25" stroke="#7C6BE7" stroke-width="2.08333" stroke-linecap="round" stroke-linejoin="round"/>
<path d="M24.1667 4.83333C23.5257 4.83333 22.911 5.08795 22.4578 5.54116C22.0046 5.99437 21.75 6.60906 21.75 7.25" stroke="#7C6BE7" stroke-width="2.08333" stroke-linecap="round" stroke-linejoin="round"/>
<path d="M16.9167 2.41667C16.2757 2.41667 15.661 2.67128 15.2078 3.12449C14.7546 3.57771 14.5 4.19239 14.5 4.83333" stroke="#7C6BE7" stroke-width="2.08333" stroke-linecap="round" stroke-linejoin="round"/>
<path d="M9.66667 4.83333C9.02573 4.83333 8.41104 5.08795 7.95782 5.54116C7.50461 5.99437 7.25 6.60906 7.25 7.25" stroke="#7C6BE7" stroke-width="2.08333" stroke-linecap="round" stroke-linejoin="round"/>
</svg>
